<svg xmlns="http://www.w3.org/2000/svg" version="1.1" xmlns:xlink="http://www.w3.org/1999/xlink" viewBox="0 0 1422 800" style="overflow: hidden; display: block;" width="1422" height="800"><defs></defs><g id="two-0" transform="matrix(1 0 0 1 0 0)" opacity="1"></g><path d="M 396.9510708377797 350.490400055809 Q 396.9510708377797 350.490400055809 415.7230596559534 343.939525561623 434.49504847412715 337.388651067437 453.59507938881944 331.48909687954387 472.69511030351174 325.5895426916507 486.1690493911672 322.50052301065006 499.6429884788227 319.4115033296494 508.9302624700766 317.4734246719355 518.2175364613305 315.53534601422166 527.2855099855243 314.56497619759944 536.3534835097181 313.59460638097727 545.6805553549141 313.77182817164316 555.0076272001102 313.949049962309 562.9011916221518 314.55246810127096 570.7947560441936 315.15588624023286 577.4790123488117 315.9381823745007 584.1632686534299 316.72047850876845 594.8497889196723 319.9890788443521 605.5363091859147 323.2576791799357 615.1355722421249 325.14027331898853 624.734835298335 327.0228674580414 632.7274764096087 328.68577267522625 640.7201175208825 330.3486778924111 647.7712203514026 331.5500691676434 654.8223231819227 332.7514604428758 661.5864783960568 334.56795212524514 668.3506336101909 336.3844438076145 674.5039573725514 337.9692325387602 680.6572811349121 339.5540212699059 692.518101977626 341.80952434144604 704.37892282034 344.0650274129861 716.5264710197396 343.6393465975828 728.6740192191393 343.2136657821795 738.9788284241749 342.9322496353565 749.2836376292107 342.6508334885336 760.0907448686835 342.4667782372194 770.8978521081561 342.2827229859052 781.011660510231 340.976503492464 791.1254689123057 339.67028399902284 800.1235197991855 338.3561267000024 809.1215706860652 337.041969400982 816.4114294724259 335.51397745406325 823.7012882587867 333.9859855071445 832.7749541690046 331.894929147399 841.8486200792223 329.80387278765346 848.3522610907523 328.59586616709026 854.8559021022825 327.38785954652707 863.2201875006322 324.9020831816962 871.5844728989819 322.41630681686536 878.8317903229026 320.667601716174 886.0791077468233 318.91889661548265 888.3842123954644 319.18619705985 890.6893170441056 319.4534975042173 892.7883970988294 320.4428507740895 894.8874771535532 321.43220404396163 896.5607583785268 323.0400245908191 898.2340396035003 324.64784513767654 899.3063290127654 326.7057937258399 900.3786184220307 328.76374231400325 900.7376470313807 331.05635118304616 901.0966756407306 333.34896005208907 900.7048530599919 335.6361924482328 900.3130304792533 337.9234248443765 899.2113806360604 339.96580693197404 898.1097307928676 342.00818901957155 896.4135967166103 343.59188285491496 894.717462640353 345.1755766902583 892.6044300165512 346.1347691107326 890.4913973927494 347.0939615312068 888.1827012949016 347.328224837186 885.8740051970537 347.5624881431651 883.6113667160412 347.0472949046738 881.3487282350286 346.5321016661824 879.3690462170919 345.3213927512884 877.3893641991552 344.1106838363943 875.8999118741576 342.331220788083 874.41045954916 340.55175773977174 873.567182968706 338.38985080893417 872.7239063882519 336.22794387809654 872.6150968329184 333.9099452910792 872.5062872775849 331.59194670406197 873.1433371365382 329.36055152481794 873.7803869954915 327.1291563455739 875.0965969803344 325.2179922384011 876.4128069651774 323.3068281312283 878.2703695430513 321.91599448264606 880.1279321209252 320.52516083406374 882.3323599995775 319.800278294223 884.5367878782299 319.07539575438227 886.8572768768536 319.09235971655477 889.1777658754772 319.10932367872726 891.3713601833666 319.86635801159554 893.564954491256 320.6233923444638 895.4019842053224 322.04123535353887 897.2390139193889 323.4590783626139 898.5271415436408 325.3892815105714 899.8152691678928 327.31948465852884 900.4196274000385 329.5599551662534 901.0239856321841 331.80042567397805 900.8812980057828 334.11658568788425 900.7386103793814 336.43274570179045 899.8638163265831 338.5820926570154 898.9890222737848 340.7314396122403 897.4737129628409 342.48893631519945 895.9584036518968 344.24643301815854 893.9612323676656 345.428069100118 891.9640610834344 346.60970518207745 889.6941321865772 347.0917630333344 887.4242032897199 347.5738208845914 887.4263524090562 347.5737200024249 887.4285015283925 347.57361912025846 884.5921954593766 348.00404134819513 881.7558893903608 348.4344635761318 874.6972595645495 350.3341529128009 867.6386297387384 352.23384224947 860.2190363439447 353.6558534976722 852.7994429491512 355.0778647458743 845.3155692188303 355.7686444307727 837.8316954885095 356.45942411567114 828.5725853915808 358.84547172522207 819.3134752946521 361.23151933477305 811.3145360806374 362.21824724891667 803.3155968666226 363.2049751630603 794.0260581869043 364.1960197635809 784.736519507186 365.1870643641016 777.827372911568 365.8376722995339 770.9182263159499 366.4882802349661 760.1209277979938 366.31517774101127 749.3236292800377 366.1420752470564 739.0868893225138 365.9212972032608 728.8501493649898 365.70051915946516 722.5111277790713 365.65873062836704 716.172106193153 365.616942097269 708.3830094561896 365.568762494084 700.5939127192262 365.520582890899 687.7808434552758 362.5393976472202 674.9677741913252 359.55821240354146 663.0330507887275 355.6966599810562 651.0983273861295 351.83510755857094 643.829919422152 350.2494156556688 636.5615114581744 348.66372375276677 628.9541317662183 346.78424963422174 621.3467520742623 344.9047755156767 610.8253391711266 342.9755958960269 600.3039262679908 341.0464162763771 590.7870156521784 338.3616419045584 581.270105036366 335.6768675327396 575.09507802705 334.51315950138235 568.9200510177342 333.34945147002514 561.633877989251 332.3895410029437 554.3477049607679 331.4296305358623 546.0506932826702 330.9439368018536 537.7536816045725 330.4582430678449 529.4771785309888 330.94353545304534 521.200675457405 331.42882783824587 512.293515915515 332.91583671423246 503.3863563736248 334.4028455902191 490.63511896095986 337.8651236821028 477.88388154829494 341.32740177398654 459.4014874599355 347.8271611503939 440.919093371576 354.3269205268013 422.5251794797888 361.8734604308087 404.13126558800155 369.420000334816 402.9465286193674 369.7120733535212 401.76179165073324 370.00414637222644 400.54158333631995 370.00419677895667 399.3213750219067 370.0042471856869 398.1366139262793 369.7122720508006 396.95185283065194 369.4202969159144 395.871397324354 368.8532658479696 394.7909418180561 368.2862347800248 393.8775880258787 367.4771036513323 392.96423423370135 366.6679725226398 392.27106632095956 365.663768072416 391.5778984082178 364.65956362219225 391.1452033265685 363.51865026026655 390.7125082449192 362.37773689834086 390.565434252838 361.16642456291396 390.41836026075674 359.95511222748706 390.56545530557355 358.7438024484072 390.71255035039036 357.53249266932744 391.14526526118925 356.39158682786797 391.57798017198814 355.2506809864085 392.27116553782247 354.2464885836802 392.9643509036568 353.24229618095194 393.87771875849506 352.4331809265832 394.79108661333333 351.62406567221444 395.87155197453797 351.0570533828053 396.95201733574254 350.4900410933961 396.95154408676115 350.4902205746025 Z" fill="hsl(305, 77%, 40%)"></path></svg>